<svg xmlns="http://www.w3.org/2000/svg" viewBox="0 0 444 444" enable-background="new 0 0 444 444"><path fill="#F35456" d="M180 232.5c19.9 0 36 16.1 36 36s-16.1 36-36 36-36-16.1-36-36 16.1-36 36-36m0-6c-23.2 0-42 18.8-42 42s18.8 42 42 42 42-18.8 42-42-18.8-42-42-42zM264 232.5c19.9 0 36 16.1 36 36s-16.1 36-36 36-36-16.1-36-36 16.1-36 36-36m0-6c-23.2 0-42 18.8-42 42s18.8 42 42 42 42-18.8 42-42-18.8-42-42-42zM222 159.5c19.9 0 36 16.1 36 36s-16.1 36-36 36-36-16.1-36-36 16.1-36 36-36m0-6c-23.2 0-42 18.8-42 42s18.8 42 42 42 42-18.8 42-42-18.8-42-42-42z"/><path stroke="#fff" stroke-width="2" stroke-linecap="round" stroke-miterlimit="10" d="M88.5 32.5s4 33.9 20.5 57c15 21 33 34 33 34" fill="none"/></svg>