<svg xmlns="http://www.w3.org/2000/svg" viewBox="0 0 250 250" enable-background="new 0 0 250 250"><g fill="#fff"><path d="M64.2 184.8c2.3 2.3 6.1 2.3 8.5 0l15.1-15.1c2.3-2.3 2.3-6.1 0-8.5l-.3-.3c-2.3-2.3-6.1-2.3-8.5 0l-15.1 15.1c-2.3 2.3-2.3 6.1 0 8.5l.3.3zM93.8 155.4c1.2 1 3 1.2 4.5.8l2.5-.7c3.1-.9 6.4-1.4 9.6-1.9 5.2-.8 10.1-3.2 13.9-7l51.4-51.4c4.2-4.2 4.2-11.1 0-15.3l-7-7c-4.2-4.2-11.1-4.2-15.3 0l-51.4 51.4c-3.8 3.8-6.2 8.6-7 13.9-.5 3.2-1 6.4-1.9 9.6l-.8 2.6c-.4 1.3-.4 2.6.3 3.8.4.4.7.9 1.2 1.2zm6.3-8.1l12-12-7.2-7.2c-.4-.4-.4-1.1 0-1.6.4-.4 1.1-.4 1.6 0l7.2 7.2 13.6-13.6-7.2-7.2c-.4-.4-.4-1.1 0-1.6.4-.4 1.1-.4 1.6 0l7.2 7.2 13.6-13.6-7.2-7.2c-.4-.4-.4-1.1 0-1.6.4-.4 1.1-.4 1.6 0l7.2 7.2 13.6-13.6-7.2-7.2c-.4-.4-.4-1.1 0-1.6.4-.4 1.1-.4 1.6 0l15.7 15.7c.4.4.4 1.1 0 1.6-.4.4-1.1.4-1.6 0l-6.9-6.9-13.6 13.6 6.9 6.9c.4.4.4 1.1 0 1.6-.4.4-1.1.4-1.6 0l-6.9-6.9-13.6 13.6 6.9 6.9c.4.4.4 1.1 0 1.6-.4.4-1.1.4-1.6 0l-6.9-6.9-13.6 13.6 6.9 6.9c.4.4.4 1.1 0 1.6-.4.4-1.1.4-1.6 0l-6.9-6.9-12 12c-.4.4-1.1.4-1.6 0-.4-.5-.4-1.2 0-1.6zM189.1 67.7l-7.9-7.9c-5.4-5.4-12.6-8.4-20.2-8.4s-14.8 3-20.2 8.4l-59.9 59.9c-6.7 6.7-9.8 15.9-8.7 25.2.7 5.7-1.2 11.3-5.3 15.4l-9.1 9.1c-6 6-6 15.8 0 21.8 2.9 2.9 6.8 4.5 10.9 4.5 4.1 0 8-1.6 10.9-4.5l9.1-9.1c3.5-3.5 8.2-5.4 13.1-5.4.7 0 1.5 0 2.2.1 1.2.1 2.4.2 3.7.2 8.1 0 15.8-3.2 21.5-8.9l59.9-59.9c11.2-11.2 11.2-29.4 0-40.5zm3.4 13.2c-.5-1.5-1.1-3-1.8-4.4.7 1.4 1.3 2.9 1.8 4.4zm-130.4 92.9l9.1-9.1c5.4-5.4 8-12.9 7.1-20.5-.9-7.5 1.6-14.8 6.9-20.1l59.9-59.9c4.2-4.2 9.9-6.6 15.9-6.6s11.6 2.3 15.9 6.6l7.9 7.9c8.7 8.7 8.7 23 0 31.7l-59.9 59.9c-4.6 4.6-10.7 7.1-17.2 7.1-1 0-2-.1-2.9-.2-1-.1-2-.2-3-.2-6.6 0-12.8 2.6-17.5 7.3l-9.1 9.1c-1.7 1.7-4.1 2.7-6.5 2.7-2.5 0-4.8-1-6.5-2.7-1.7-1.7-2.7-4.1-2.7-6.5-.1-2.5.9-4.8 2.6-6.5zm14.1-25.5c-.1 1.3-.2 2.5-.5 3.8.3-1.3.5-2.5.5-3.8zm-2.7 9.7c.4-.7.8-1.5 1.1-2.3s.6-1.6.8-2.4c-.2.8-.5 1.6-.8 2.4s-.7 1.5-1.1 2.3l-1.3 2.2c.4-.8.9-1.5 1.3-2.2zm-16.1 24.5c-.1-.7-.2-1.4-.2-2.2 0 .7.1 1.5.2 2.2.2 1.1.6 2.1 1.1 3.1-.5-1-.9-2-1.1-3.1zm3.1 5.9l.9.8c-.3-.3-.6-.6-.9-.8zm8.1 3.3c-2.2 0-4.4-.6-6.3-1.9 1.9 1.3 4.1 1.9 6.3 1.9s4.4-.6 6.3-1.9c-1.9 1.3-4.1 1.9-6.3 1.9zm8.1-3.3l-.9.8c.3-.3.6-.6.9-.8l9.1-9.1-9.1 9.1zm10.8-10.7c1.2-.9 2.4-1.8 3.7-2.5-1.3.8-2.6 1.6-3.7 2.5zm30.3-6.7c-1.6.7-3.2 1.2-4.9 1.5s-3.4.5-5.2.5c-1.1 0-2.1-.1-3.2-.2 1.1.1 2.1.2 3.2.2 1.7 0 3.5-.2 5.2-.5s3.3-.9 4.9-1.5c1.2-.5 2.4-1.1 3.5-1.7-1.2.6-2.3 1.2-3.5 1.7zm73.9-73.8c-1.2 3-3 5.7-5.4 8.1l-59.9 59.9c-1.2 1.2-2.6 2.4-4.1 3.3 1.4-1 2.8-2.1 4.1-3.3l59.9-59.9c2.4-2.4 4.2-5.2 5.4-8.1.6-1.5 1.1-3 1.4-4.6-.4 1.6-.8 3.1-1.4 4.6z"/></g></svg>