<svg width="140" height="140" viewBox="0 0 140 140" xmlns="http://www.w3.org/2000/svg" xmlns:sketch="http://www.bohemiancoding.com/sketch/ns"><title>graphic-t8market_sticker--b.svg</title><g sketch:type="MSLayerGroup" fill="none"><path d="M74.659 2.888c2.915-3.692 8.739-2.814 10.436 1.573 1.416 3.662 5.881 5.039 9.114 2.811 3.873-2.669 9.18-.113 9.508 4.579.273 3.917 4.134 6.549 7.88 5.373 4.488-1.409 8.806 2.597 7.736 7.178-.893 3.823 2.021 7.477 5.947 7.457 4.704-.024 7.649 5.077 5.277 9.139-1.98 3.39-.273 7.74 3.484 8.879 4.502 1.364 5.813 7.106 2.348 10.288-2.891 2.656-2.542 7.316.713 9.511 3.9 2.631 3.46 8.505-.788 10.524-3.546 1.686-4.586 6.242-2.123 9.299 2.951 3.663.8 9.146-3.855 9.824-3.885.565-6.222 4.612-4.769 8.259 1.74 4.371-1.932 8.976-6.58 8.251-3.879-.604-7.305 2.574-6.992 6.488.375 4.689-4.491 8.007-8.719 5.944-3.529-1.721-7.739.307-8.593 4.139-1.024 4.591-6.653 6.327-10.085 3.11-2.864-2.684-7.485-1.988-9.431 1.422-2.331 4.085-8.222 4.085-10.553 0-1.946-3.41-6.567-4.106-9.431-1.422-3.433 3.217-9.061 1.481-10.085-3.11-.854-3.832-5.064-5.86-8.593-4.139-4.228 2.063-9.095-1.255-8.72-5.944.314-3.914-3.112-7.092-6.991-6.488-4.648.725-8.321-3.88-6.58-8.251 1.453-3.647-.884-7.694-4.769-8.259-4.655-.678-6.807-6.161-3.855-9.824 2.463-3.057 1.423-7.613-2.123-9.299-4.248-2.019-4.688-7.893-.788-10.524 3.255-2.195 3.604-6.855.712-9.511-3.464-3.182-2.153-8.924 2.349-10.288 3.757-1.139 5.464-5.489 3.484-8.879-2.372-4.062.573-9.163 5.277-9.139 3.926.02 6.839-3.634 5.947-7.457-1.07-4.581 3.248-8.587 7.736-7.178 3.745 1.176 7.606-1.456 7.88-5.373.328-4.692 5.635-7.248 9.508-4.579 3.233 2.228 7.698.851 9.114-2.811 1.697-4.387 7.521-5.265 10.435-1.573 2.433 3.082 7.106 3.082 9.538 0" fill="#F35456" sketch:type="MSShapeGroup"/><path d="M25.601 58.567l-3.359 1.254-.453-1.212 8.175-3.053.453 1.212-3.375 1.261 3.671 9.829-1.441.539-3.671-9.83" fill="#fff" sketch:type="MSShapeGroup"/><path d="M39.43 60.011c1.095 2.933-.46 4.969-2.376 5.685-2.148.801-4.389-.153-5.325-2.66-.991-2.654.164-4.859 2.359-5.678 2.278-.851 4.436.228 5.342 2.653zm-6.261 2.431c.648 1.737 2.138 2.675 3.546 2.149 1.376-.514 1.925-2.194 1.258-3.98-.502-1.344-1.81-2.797-3.514-2.161-1.704.637-1.853 2.485-1.29 3.992z" fill="#fff" sketch:type="MSShapeGroup"/><path d="M45.8 53.189l2.961 7.93-1.425.532-2.539-6.799-2.719 1.015.771 2.064c.832 2.228 1.175 3.8.394 4.856-.277.458-.652.804-1.389 1.08l-.57-1.076c.261-.154.529-.384.665-.621.534-.816.2-1.962-.46-3.731l-1.193-3.195 5.504-2.055" fill="#fff" sketch:type="MSShapeGroup"/><path d="M49.549 51.789l1.003 2.687c.303-.188.855-.413 1.281-.572 1.785-.666 3.878-.814 4.668 1.301.305.818.192 1.514-.157 2.13-.593 1.062-1.935 1.768-3.098 2.202-.804.3-1.559.527-2.174.681l-2.949-7.897 1.426-.532zm2.588 6.93c.292-.071.615-.154 1.09-.332 1.081-.404 2.339-1.284 1.844-2.611-.514-1.376-2.067-1.133-3.13-.735-.378.141-.694.295-1.003.468l1.199 3.21z" fill="#fff" sketch:type="MSShapeGroup"/><path d="M57.737 48.731l1.285 3.441.344-.129 1.698-4.554 1.753-.655-2.118 4.879c1.328-.345 2.416.219 3.571 1.412.408.444.974 1.111 1.573 1.615l-1.507.563c-.341-.265-.852-.784-1.343-1.348-1.017-1.075-1.975-1.389-3.319-.888l-.279.104 1.303 3.49-1.425.532-2.961-7.929 1.425-.533" fill="#fff" sketch:type="MSShapeGroup"/><path d="M72.691 47.59c1.095 2.933-.46 4.969-2.377 5.685-2.145.801-4.388-.153-5.324-2.66-.991-2.654.164-4.858 2.36-5.678 2.277-.851 4.435.228 5.341 2.653zm-6.262 2.432c.648 1.736 2.138 2.674 3.547 2.148 1.376-.514 1.926-2.194 1.259-3.98-.502-1.344-1.81-2.797-3.515-2.161-1.704.637-1.854 2.486-1.291 3.993z" fill="#fff" sketch:type="MSShapeGroup"/><path d="M82.665 39.423l2.557 6.848.826-.289 1.258 3.618-1.131.422-1.008-2.498-5.489 2.049.878 2.548-1.131.422-1.406-3.563.666-.268c.154-.636.215-1.275.181-1.915-.056-1.1-.306-2.22-.722-3.334l-.771-2.064 5.292-1.976zm-3.115 3.907c.391 1.048.624 2.12.692 3.102.038.602-.008 1.179-.089 1.713l3.654-1.364-2.142-5.734-2.605.972.49 1.311z" fill="#fff" sketch:type="MSShapeGroup"/><path d="M91.294 36.2l2.961 7.93-1.425.532-2.539-6.799-2.72 1.016.771 2.064c.832 2.228 1.176 3.799.395 4.856-.278.458-.652.803-1.39 1.079l-.569-1.076c.26-.153.529-.384.665-.621.534-.816.2-1.961-.461-3.731l-1.193-3.194 5.505-2.056" fill="#fff" sketch:type="MSShapeGroup"/><path d="M102.46 41.066l-1.425.532-1.242-3.325-1.065.397c-.606.226-.954.543-1.162.938-.412.696-.258 1.758-.282 2.644-.007.283-.041.538-.083.778l-1.54.575c.083-.33.137-.686.155-1.084.056-.899-.132-2.005.352-2.858.166-.305.394-.595.73-.794l-.019-.051c-1.074.272-2.379.03-2.831-1.183-.306-.818-.071-1.54.406-2.111.515-.622 1.421-1.146 2.452-1.531.951-.355 1.899-.616 2.617-.792l2.937 7.865zm-4.032-6.447c-.378.085-.718.175-1.226.365-.983.367-2.042 1.079-1.632 2.177.379 1.016 1.775.905 2.627.587l1.228-.459-.997-2.67z" fill="#fff" sketch:type="MSShapeGroup"/><path d="M23.724 83.826l1.249 3.343 1.359-.508c-.537-2.189.307-4.128 2.207-4.838 2.064-.771 4.086.341 4.997 2.782.961 2.572-.001 4.798-1.999 5.544-1.9.71-3.82-.178-4.828-2.378l-1.326.495 1.303 3.49-1.41.526-2.961-7.93 1.409-.526zm8.383 1.35c-.557-1.491-1.804-2.78-3.213-2.254-1.393.52-1.566 2.302-.967 3.909.575 1.539 1.836 2.768 3.229 2.247 1.458-.544 1.514-2.394.951-3.902z" fill="#fff" sketch:type="MSShapeGroup"/><path d="M34.86 82.618c-.38-1.017-.717-1.824-1.032-2.565l1.295-.483.573 1.334.032-.012c.229-1.186.949-2.108 2.244-2.592 1.916-.715 3.964.368 4.864 2.777 1.064 2.85-.147 4.908-2.014 5.605-1.05.392-2.139.276-2.906-.333l-.034.013 1.609 4.308-1.425.532-3.206-8.584zm2.214 1.58c.08.213.188.398.287.566.635.901 1.76 1.265 2.793.879 1.523-.569 1.943-2.144 1.264-3.963-.594-1.589-1.937-2.637-3.46-2.068-.983.367-1.637 1.415-1.512 2.6.018.198.047.43.121.627l.507 1.359z" fill="#fff" sketch:type="MSShapeGroup"/><path d="M44.539 76.053l1.248 3.343c.471 1.261.748 2.053 1.105 3.208l.056-.001c.113-1.144.184-1.806.366-2.918l.944-5.021 1.687-.63 2.962 7.93-1.377.514-1.254-3.359c-.483-1.294-.701-1.978-1.113-3.28l-.048.018c-.129 1.205-.235 1.973-.394 2.947l-.926 5.069-1.654.618-2.962-7.93 1.36-.508" fill="#fff" sketch:type="MSShapeGroup"/><path d="M58.429 70.866l2.557 6.848.825-.288 1.258 3.618-1.131.422-1.008-2.498-5.487 2.049.876 2.548-1.131.422-1.404-3.564.665-.267c.154-.636.214-1.275.18-1.915-.055-1.1-.305-2.22-.721-3.334l-.771-2.065 5.292-1.976zm-3.115 3.907c.391 1.049.623 2.121.692 3.103.038.602-.009 1.179-.089 1.713l3.654-1.364-2.142-5.735-2.605.973.49 1.31z" fill="#fff" sketch:type="MSShapeGroup"/><path d="M62.291 69.424l1.249 3.343c.471 1.261.748 2.053 1.104 3.208l.057-.002c.112-1.143.184-1.806.365-2.918l.945-5.02 1.687-.63 2.961 7.93-1.376.514-1.254-3.359c-.484-1.294-.702-1.978-1.114-3.28l-.048.018c-.128 1.205-.235 1.972-.394 2.946-.295 1.51-.593 3.359-.926 5.07l-1.654.617-2.961-7.929 1.359-.508" fill="#fff" sketch:type="MSShapeGroup"/><path d="M71.168 66.109l.972 2.605c.374 1 1.007 1.547 2.27 1.075.621-.232 1.176-.7 1.495-1.193l-1.395-3.735 1.426-.532 2.961 7.93-1.426.532-1.187-3.179-.033.012c-.406.563-1.165 1.127-1.919 1.409-1.508.562-2.893.202-3.572-1.617l-1.034-2.768 1.442-.539" fill="#fff" sketch:type="MSShapeGroup"/><path d="M80.673 67.377c.76 1.937 2.305 2.274 3.746 1.736 1.033-.386 1.588-.798 2.044-1.229l.631.94c-.422.419-1.193 1.006-2.454 1.477-2.441.911-4.499-.149-5.392-2.542-.894-2.391-.189-4.802 2.122-5.665 2.588-.966 4.127 1.054 4.672 2.512.11.295.162.536.201.691l-5.57 2.08zm3.84-2.611c-.325-.924-1.251-2.203-2.873-1.597-1.458.545-1.595 2.126-1.337 3.169l4.21-1.572z" fill="#fff" sketch:type="MSShapeGroup"/><path d="M94.999 65.909c-.303.338-1.041.912-2.106 1.31-2.392.893-4.554-.148-5.46-2.573-.911-2.441.099-4.835 2.687-5.801.853-.318 1.686-.387 2.153-.337l.088 1.236c-.417-.067-1.026-.046-1.812.247-1.819.68-2.3 2.39-1.681 4.045.685 1.835 2.287 2.525 3.859 1.938.82-.306 1.28-.722 1.622-1.054l.65.989" fill="#fff" sketch:type="MSShapeGroup"/><path d="M95.258 57.113l1.284 3.441.345-.129 1.697-4.554 1.753-.655-2.118 4.879c1.328-.345 2.416.219 3.571 1.412.408.444.975 1.111 1.574 1.615l-1.508.563c-.341-.265-.852-.784-1.342-1.347-1.018-1.076-1.976-1.39-3.32-.889l-.278.105 1.303 3.489-1.425.532-2.961-7.93 1.425-.532" fill="#fff" sketch:type="MSShapeGroup"/><path d="M103.004 54.221l1.248 3.342c.472 1.262.749 2.053 1.105 3.208l.055-.001c.115-1.144.185-1.806.367-2.918l.945-5.02 1.687-.631 2.961 7.93-1.376.514-1.254-3.358c-.484-1.295-.702-1.979-1.113-3.281l-.05.019c-.128 1.205-.234 1.972-.393 2.946-.295 1.51-.593 3.358-.926 5.069l-1.654.618-2.961-7.93 1.359-.507" fill="#fff" sketch:type="MSShapeGroup"/><path d="M111.422 51.077l1.766 1.283c.461.331.858.649 1.286.993l.049-.018c.085-.573.194-1.08.298-1.604l.483-2.104 1.556-.581-1.271 4.843 4.315 3.056-1.639.612-1.83-1.352c-.482-.342-.909-.686-1.365-1.057l-.034.012c-.084.573-.204 1.103-.322 1.688l-.479 2.214-1.589.594 1.306-5.099-4.137-2.88 1.607-.6" fill="#fff" sketch:type="MSShapeGroup"/><path d="M51.807 95.733l2.961 7.93-1.425.532-2.539-6.799-2.72 1.016.771 2.064c.832 2.228 1.176 3.799.394 4.856-.277.457-.652.804-1.389 1.079l-.569-1.076c.259-.154.529-.384.663-.621.536-.816.202-1.961-.459-3.731l-1.193-3.194 5.505-2.056" fill="#fff" sketch:type="MSShapeGroup"/><path d="M55.489 94.358l1.249 3.343c.471 1.261.748 2.053 1.104 3.208l.056-.001c.115-1.145.184-1.806.367-2.919l.944-5.02 1.687-.63 2.961 7.93-1.376.514-1.254-3.359c-.484-1.295-.701-1.979-1.113-3.281l-.05.019c-.128 1.205-.234 1.972-.393 2.946l-.925 5.069-1.656.619-2.961-7.93 1.36-.508" fill="#fff" sketch:type="MSShapeGroup"/><path d="M64.628 90.945l2.539 6.8 3.653-1.365-2.539-6.799 1.425-.532 2.558 6.848.826-.289 1.258 3.618-1.114.416-1.008-2.498-6.063 2.264-2.961-7.93 1.426-.533" fill="#fff" sketch:type="MSShapeGroup"/><path d="M77.041 86.31l1.249 3.342c.471 1.262.748 2.054 1.104 3.209l.057-.002c.112-1.143.184-1.806.365-2.918l.945-5.02 1.687-.63 2.961 7.929-1.376.514-1.254-3.358c-.484-1.295-.702-1.979-1.114-3.28l-.048.017c-.128 1.206-.234 1.973-.394 2.947-.295 1.51-.593 3.358-.926 5.069l-1.654.618-2.961-7.93 1.359-.507" fill="#fff" sketch:type="MSShapeGroup"/><path d="M88.489 78.487l1.738 4.654c.655 1.752 1.16 3.207 1.613 4.718l.038.004c.129-1.355.371-2.807.684-4.418l1.448-7.019 1.426-.532 4.123 11.042-1.343.502-1.756-4.702c-.667-1.786-1.139-3.103-1.545-4.538l-.056.001c-.088 1.415-.364 2.975-.659 4.485l-1.407 6.779-1.523.569-4.124-11.043 1.343-.502" fill="#fff" sketch:type="MSShapeGroup"/><path d="M105.9 71.986l4.124 11.043-1.425.532-3.678-9.847-5.127 1.915 3.677 9.847-1.426.532-4.123-11.043 7.978-2.979" fill="#fff" sketch:type="MSShapeGroup"/></g></svg>