<svg xmlns="http://www.w3.org/2000/svg" viewBox="0 0 250 250" enable-background="new 0 0 250 250"><g fill="#fff"><path d="M164.8 118.1c-3.3-11-13.5-18.9-25.5-18.9-4 0-7.7.9-11.1 2.4-8.7-10.9-22-17.9-37-17.9-24.7 0-45 19-47.1 43.2-12.7 1.6-22.5 12.3-22.5 25.4 0 14.2 11.5 25.7 25.8 25.7h116.9c16.1 0 29.2-13.4 29.2-30-.1-16.4-12.8-29.6-28.7-29.9zM169.9 67c6 0 11.6 2.7 15.4 7.5l2.1 2.7 2.9 3.7 4.3-2 3.1-1.4c.9-.4 1.8-.6 2.7-.6 2.9 0 5.4 1.9 6.3 4.7l.9 3 1.3 4.2 4.4.1 3.2.1c4.4.1 8 3.8 8 8.5 0 4.8-3.7 8.6-8.2 8.6h-74.3c-3.3 0-6-2.5-6-5.8 0-3 2.3-5.5 5.2-5.9l3.5-.4 4.8-.6.4-4.8.3-3.5c1-10.2 9.6-18.1 19.7-18.1m0-6c-13.2 0-24.4 10.3-25.6 23.4l-.3 3.6-3.5.4c-6 .8-10.5 5.7-10.5 11.7 0 6.6 5.4 11.8 12 11.8h74.2c7.8 0 14.2-6.4 14.2-14.6 0-8-6.2-14.5-13.9-14.6h-3.2l-.9-3c-1.6-5.3-6.5-8.9-12-8.9-1.8 0-3.6.4-5.2 1.2l-3.1 1.4-2.1-2.7c-4.9-6.1-12.2-9.7-20.1-9.7z"/></g></svg>