<svg xmlns="http://www.w3.org/2000/svg" viewBox="0 0 250 250" enable-background="new 0 0 250 250"><g fill="#A6A8AB"><path d="M194.9 84c1.1 0 2.1.8 2.1 1.9v109c0 1.1-1 2.1-2.1 2.1h-109c-1.1 0-1.9-1-1.9-2.1v-54.9h-6v54.9c0 4.4 3.5 8.1 7.9 8.1h109c4.4 0 8.1-3.7 8.1-8.1v-109c0-4.4-3.9-7.9-8.3-7.9h.2-69.9v6h70"/><path d="M125 100h55v6h-55zM125 115h55v6h-55zM109 131h71v6h-71zM101 147h63v6h-63zM101 162h63v6h-63zM101 178h47v6h-47zM78.1 45.8c3.2 6 7 11.8 10.6 17.6 7.3 11.4 14.3 22.3 14.3 30.3 0 14-11.2 25.3-25 25.3s-25-11.4-25-25.3c0-7.9 6.9-18.6 14.2-29.9 3.8-5.9 7.6-11.9 10.9-18m-.1-14.8c-7.3 22.3-31 45.4-31 62.7s13.9 31.3 31 31.3 31-14 31-31.3-23.3-40.4-31-62.7zM94.1 102.3c-3.3 6.6-11.2 9.3-17.8 6 6.1-.9 13.5-14.9 11.8-23.8 6.6 3.3 9.3 11.2 6 17.8z"/></g></svg>