<svg xmlns="http://www.w3.org/2000/svg" viewBox="0 0 250 250" enable-background="new 0 0 250 250"><g fill="#A6A8AB"><path d="M197 168v-23.6c0-4.4-3.6-8.4-8-8.4h-130c-4.4 0-8 3.9-8 8.4v23.6h6v-23.6c0-1.1.9-2.4 2-2.4h130c1.1 0 2 1.3 2 2.4v23.6h6zM125.1 45.8c3.2 6 7 11.8 10.6 17.6 7.3 11.4 14.3 22.3 14.3 30.3 0 14-11.2 25.3-25 25.3s-25-11.4-25-25.3c0-7.9 6.9-18.6 14.2-29.9 3.8-5.9 7.6-11.9 10.9-18m-.1-14.8c-7.3 22.3-31 45.4-31 62.7s13.9 31.3 31 31.3 31-14 31-31.3-23.3-40.4-31-62.7zM141.1 102.3c-3.3 6.6-11.2 9.3-17.8 6 6.1-.9 13.5-14.9 11.8-23.8 6.6 3.3 9.3 11.2 6 17.8zM188.6 174h-129.6c-4.4 0-8 3.6-8 8v22c0 4.4 3.6 8 8 8h130c4.4 0 8-3.6 8-8v-21.6c0-4.6-3.8-8.4-8.4-8.4zm-131.6 29.6v-21.2c0-1.3 1.1-2.4 2.4-2.4h129.6c1.1 0 2 .9 2 2v21.6c0 1.3-1.1 2.4-2.4 2.4h-129.2c-1.3 0-2.4-1.1-2.4-2.4zM78 99h-19c-4.4 0-8 3.9-8 8.4v23.6h6v-23.6c0-1.1.9-2.4 2-2.4h19v-6zM189 99h-17v6h17c1.1 0 2 1.3 2 2.4v23.6h6v-23.6c0-4.5-3.6-8.4-8-8.4z"/></g></svg>