<svg xmlns="http://www.w3.org/2000/svg" viewBox="0 0 250 250" enable-background="new 0 0 250 250"><g fill="#A6A8AB"><path d="M195 53c1.1 0 2 .9 2 2v140c0 1.1-.9 2-2 2h-140c-1.1 0-2-.9-2-2v-140c0-1.1.9-2 2-2h140m0-6h-140c-4.4 0-8 3.6-8 8v140c0 4.4 3.6 8 8 8h140c4.4 0 8-3.6 8-8v-140c0-4.4-3.6-8-8-8zM128 84h33.3c1.4 0 2.6 1 2.9 2.3l.6 2.7h2.1l-.6-11h-82.7l-.4 11h2.1l.5-2.5c.3-1.4 1.5-2.5 2.9-2.5h33.3v79.5c0 2.3-.1 4-.6 4.6-.7 1-1.9 1.8-3.6 1.8h-1.8v2h18v-2h-1.8c-1.6 0-2.7-.7-3.4-1.5-.5-.6-.8-2.4-.8-4.9v-79.5z"/></g></svg>