<svg width="154" height="44" viewBox="0 0 154 44" xmlns="http://www.w3.org/2000/svg" xmlns:sketch="http://www.bohemiancoding.com/sketch/ns"><title>logo-t8market</title><g sketch:type="MSLayerGroup" fill="none"><path d="M44.49 21.961c0 12.172-9.867 22.039-22.039 22.039s-22.04-9.867-22.04-22.039 9.868-22.04 22.04-22.04c12.172 0 22.039 9.868 22.039 22.04" fill="#13E88C" sketch:type="MSShapeGroup"/><path d="M9.939 28.848c0-2.954 1.614-9.344 3.984-16.936.344-1.133.756-1.133 2.302-1.133l-1.34 4.225h5.703c.722 0 .55.481.275 1.821h-6.493c-1.649 5.771-2.37 9.653-2.37 11.44 0 1.82.859 2.954 2.782 2.954 1.306 0 2.371-.378 3.161-.79l.103.103-.137.721c-.378 1.477-2.371 1.89-3.951 1.89-2.37 0-4.019-1.443-4.019-4.295" fill="#fff" sketch:type="MSShapeGroup"/><path d="M26.325 33.143c-3.607 0-5.874-2.336-5.874-5.428 0-2.886 2.061-4.775 4.878-5.497-1.924-.927-3.092-2.989-3.092-4.912 0-3.951 3.264-6.184 7.249-6.184 3.16 0 5.874 1.58 5.874 5.05 0 3.023-2.233 5.222-4.981 6.149 1.958.722 3.263 2.268 3.263 4.329 0 4.019-3.435 6.493-7.317 6.493zm1.271-9.997c-2.885 0-5.084 1.82-5.084 4.466 0 1.958 1.511 3.71 3.95 3.71 2.852 0 5.257-1.821 5.257-4.672-.035-1.924-1.718-3.504-4.123-3.504zm1.649-10.203c-2.989 0-5.05 1.752-5.05 4.535 0 1.82 1.512 3.916 3.779 3.916 2.851 0 5.29-2.199 5.29-4.947 0-1.993-1.408-3.504-4.019-3.504z" fill="#fff" sketch:type="MSShapeGroup"/><path d="M77.173 32.569v-15.371l-6.188 15.371h-2.04l-6.188-15.371v15.371h-4.673v-21.953h6.549l5.332 13.264 5.332-13.264h6.583v21.953h-4.707" fill="#231F1F" sketch:type="MSShapeGroup"/><path d="M94.348 32.569v-1.646c-1.086 1.284-2.962 2.041-5.036 2.041-2.534 0-5.529-1.712-5.529-5.266 0-3.719 2.995-5.134 5.529-5.134 2.107 0 3.983.69 5.036 1.941v-2.139c0-1.613-1.382-2.666-3.489-2.666-1.711 0-3.291.625-4.64 1.876l-1.58-2.798c1.942-1.711 4.443-2.501 6.944-2.501 3.621 0 6.945 1.448 6.945 6.023v10.269h-4.18zm0-3.818v-1.975c-.691-.922-2.007-1.382-3.357-1.382-1.645 0-2.995.855-2.995 2.402 0 1.481 1.35 2.337 2.995 2.337 1.35 0 2.666-.461 3.357-1.382z" fill="#231F1F" sketch:type="MSShapeGroup"/><path d="M100.698 32.569v-15.897h4.179v2.172c1.12-1.415 3.094-2.567 5.069-2.567v4.081c-.296-.066-.691-.099-1.152-.099-1.382 0-3.225.79-3.917 1.81v10.5h-4.179" fill="#231F1F" sketch:type="MSShapeGroup"/><path d="M121.529 32.569l-4.213-6.122-1.909 2.041v4.081h-4.18v-21.953h4.18v13.132l6.023-7.076h5.134l-6.286 7.208 6.484 8.689h-5.233" fill="#231F1F" sketch:type="MSShapeGroup"/><path d="M125.672 24.604c0-4.608 3.39-8.327 8.228-8.327 4.74 0 7.965 3.555 7.965 8.755v.921h-11.816c.264 2.008 1.876 3.687 4.575 3.687 1.35 0 3.226-.593 4.246-1.58l1.843 2.699c-1.58 1.448-4.081 2.205-6.549 2.205-4.839 0-8.492-3.258-8.492-8.36zm8.228-5.003c-2.6 0-3.719 1.942-3.917 3.522h7.834c-.099-1.514-1.152-3.522-3.917-3.522z" fill="#231F1F" sketch:type="MSShapeGroup"/><path d="M145.712 28.619v-8.294h-2.633v-3.653h2.633v-4.345h4.213v4.345h3.226v3.653h-3.226v7.175c0 .988.527 1.745 1.449 1.745.625 0 1.217-.231 1.447-.461l.889 3.159c-.625.56-1.744 1.021-3.489 1.021-2.929 0-4.509-1.514-4.509-4.345" fill="#231F1F" sketch:type="MSShapeGroup"/></g></svg>