<svg xmlns:sketch="http://www.bohemiancoding.com/sketch/ns" xmlns="http://www.w3.org/2000/svg" viewBox="0 0 154 44" enable-background="new 0 0 154 44"><title>logo-t8market</title><g sketch:type="MSLayerGroup"><path sketch:type="MSShapeGroup" fill="#231F1F" d="M44.5 22c0 12.2-9.9 22-22 22s-22-9.9-22-22 9.9-22 22-22 22 9.8 22 22"/><path sketch:type="MSShapeGroup" fill="#fff" d="M9.9 28.8c0-3 1.6-9.3 4-16.9.3-1.1.8-1.1 2.3-1.1l-1.3 4.2h5.7c.7 0 .5.5.3 1.8h-6.5c-1.6 5.8-2.4 9.7-2.4 11.4 0 1.8.9 3 2.8 3 1.3 0 2.4-.4 3.2-.8l.1.1-.1.7c-.4 1.5-2.4 1.9-4 1.9-2.4 0-4.1-1.4-4.1-4.3"/><path sketch:type="MSShapeGroup" fill="#fff" d="M26.3 33.1c-3.6 0-5.9-2.3-5.9-5.4 0-2.9 2.1-4.8 4.9-5.5-1.9-.9-3.1-3-3.1-4.9 0-4 3.3-6.2 7.2-6.2 3.2 0 5.9 1.6 5.9 5 0 3-2.2 5.2-5 6.1 2 .7 3.3 2.3 3.3 4.3 0 4.2-3.4 6.6-7.3 6.6zm1.3-10c-2.9 0-5.1 1.8-5.1 4.5 0 2 1.5 3.7 4 3.7 2.9 0 5.3-1.8 5.3-4.7-.1-1.9-1.8-3.5-4.2-3.5zm1.6-10.2c-3 0-5.1 1.8-5.1 4.5 0 1.8 1.5 3.9 3.8 3.9 2.9 0 5.3-2.2 5.3-4.9.1-1.9-1.3-3.5-4-3.5z"/><path sketch:type="MSShapeGroup" fill="#231F1F" d="M77.2 32.6v-15.4l-6.2 15.4h-2l-6.2-15.4v15.4h-4.7v-22h6.5l5.4 13.3 5.3-13.3h6.6v22h-4.7"/><path sketch:type="MSShapeGroup" fill="#231F1F" d="M94.3 32.6v-1.6c-1.1 1.3-3 2-5 2-2.5 0-5.5-1.7-5.5-5.3 0-3.7 3-5.1 5.5-5.1 2.1 0 4 .7 5 1.9v-2.1c0-1.6-1.4-2.7-3.5-2.7-1.7 0-3.3.6-4.6 1.9l-1.6-2.8c1.9-1.7 4.4-2.5 6.9-2.5 3.6 0 6.9 1.4 6.9 6v10.3h-4.1zm0-3.8v-2c-.7-.9-2-1.4-3.4-1.4-1.6 0-3 .9-3 2.4s1.3 2.3 3 2.3c1.4 0 2.8-.4 3.4-1.3zM100.7 32.6v-15.9h4.2v2.2c1.1-1.4 3.1-2.6 5.1-2.6v4.1c-.3-.1-.7-.1-1.2-.1-1.4 0-3.2.8-3.9 1.8v10.5h-4.2M121.5 32.6l-4.2-6.1-1.9 2v4.1h-4.2v-22h4.2v13.1l6-7.1h5.1l-6.3 7.2 6.5 8.7h-5.2"/><path sketch:type="MSShapeGroup" fill="#231F1F" d="M125.7 24.6c0-4.6 3.4-8.3 8.2-8.3 4.7 0 8 3.6 8 8.8v.9h-11.9c.3 2 1.9 3.7 4.6 3.7 1.4 0 3.2-.6 4.2-1.6l1.8 2.7c-1.6 1.4-4.1 2.2-6.5 2.2-4.8 0-8.4-3.3-8.4-8.4zm8.2-5c-2.6 0-3.7 1.9-3.9 3.5h7.8c-.1-1.5-1.1-3.5-3.9-3.5zM145.7 28.6v-8.3h-2.6v-3.7h2.6v-4.3h4.2v4.3h3.2v3.7h-3.2v7.2c0 1 .5 1.7 1.4 1.7.6 0 1.2-.2 1.4-.5l.9 3.2c-.6.6-1.7 1-3.5 1-2.8.1-4.4-1.4-4.4-4.3"/></g></svg>