<svg width="128" height="85" viewBox="0 0 128 85" xmlns="http://www.w3.org/2000/svg" xmlns:sketch="http://www.bohemiancoding.com/sketch/ns"><title>graphic-t8-notifications</title><g sketch:type="MSArtboardGroup" fill="none"><path d="M89 16.419c0-.775-1.759-1.419-2.515-1.419h-84.62c-.756 0-1.865.644-1.865 1.419v53.376c0 .775 1.11 1.205 1.865 1.205h84.62c.756 0 2.515-.43 2.515-1.205v-53.376" fill="#E6CC41" sketch:type="MSShapeGroup"/><path d="M87.239 68.626c.188-.339-.239-.736-.239-1.161v-50.153c0-.256.468-.493.351-.692l-34.962 21.899 34.85 30.107" fill="#fff" sketch:type="MSShapeGroup"/><path d="M44.656 43.699l-7.5-4.724-34.575 30.509c.298.225.657.516 1.042.516h82.468c.452 0 .868-.332 1.202-.619l-35.047-30.356-7.59 4.674" fill="#fff" sketch:type="MSShapeGroup"/><path d="M1.997 16.752c-.076.169.003.358.003.56v50.276c0 .431-.007.832.195 1.166l34.41-30.205-34.608-21.797" fill="#fff" sketch:type="MSShapeGroup"/><path d="M87.266 16.082c-.104-.034-.211-.082-.324-.082h-84.06c-.176 0-.34.072-.489.152l42.264 26.619 42.609-26.689" fill="#fff" sketch:type="MSShapeGroup"/><path d="M26.678 78.33c3.224 0 3.224-5 0-5s-3.224 5 0 5" fill="#fff" sketch:type="MSShapeGroup"/><path d="M128 3.152c0-1.741-1.411-3.152-3.152-3.152h-40.696c-1.741 0-3.152 1.411-3.152 3.152v78.696c0 1.741 1.411 3.152 3.152 3.152h40.696c1.741 0 3.152-1.411 3.152-3.152v-78.696zm-44 9.848h41v59h-41v-59z" fill="#6D6E71" sketch:type="MSShapeGroup"/><path d="M105.43 47.172h-1.031c-.109-1.781-.469-3.937-1.078-6.469l-1.219-5.109c-.734-3.063-1.102-5.258-1.102-6.586 0-1.203.359-2.172 1.078-2.906.719-.734 1.656-1.102 2.813-1.102 1.125 0 2.059.371 2.801 1.113s1.113 1.684 1.113 2.824c0 1.188-.391 3.406-1.172 6.656l-1.242 5.109c-.438 1.813-.758 3.969-.961 6.469zm-.492 3.352c1.047 0 1.941.371 2.684 1.113.742.742 1.113 1.645 1.113 2.707 0 1.047-.371 1.941-1.113 2.684-.742.742-1.637 1.113-2.684 1.113-1.047 0-1.941-.371-2.684-1.113-.742-.742-1.113-1.637-1.113-2.684 0-1.047.367-1.945 1.102-2.695.734-.75 1.633-1.125 2.695-1.125z" fill="#E9665E" sketch:type="MSShapeGroup"/><path d="M106.986 78.142c0 1.837-1.49 3.327-3.328 3.327-1.837 0-3.327-1.49-3.327-3.327 0-1.838 1.49-3.328 3.327-3.328 1.838 0 3.328 1.49 3.328 3.328" fill="#A7A9AC" sketch:type="MSShapeGroup"/><path d="M111 7.375c0 .345-.28.625-.625.625h-11.75c-.345 0-.625-.28-.625-.625v-.75c0-.345.28-.625.625-.625h11.75c.345 0 .625.28.625.625v.75" fill="#A7A9AC" sketch:type="MSShapeGroup"/><path d="M93.722 6.825c0 .685.555 1.241 1.241 1.241.685 0 1.241-.556 1.241-1.241s-.556-1.241-1.241-1.241c-.686 0-1.241.556-1.241 1.241" fill="#A7A9AC" sketch:type="MSShapeGroup"/></g></svg>