<svg width="175" height="105" viewBox="0 0 175 105" xmlns="http://www.w3.org/2000/svg" xmlns:sketch="http://www.bohemiancoding.com/sketch/ns"><title>graphic-t8-webapp</title><g sketch:type="MSLayerGroup" fill="none"><path d="M172.348 0h-169.797c-1.262 0-2.551 1.023-2.551 2.285v102.715h175v-102.715c0-1.262-1.39-2.285-2.652-2.285" fill="#E6E7E8" sketch:type="MSShapeGroup"/><path d="M1 11h173v93h-173v-93z" fill="#fff" sketch:type="MSShapeGroup"/><path d="M169.966 3.535c1.094 0 1.98.887 1.98 1.98 0 1.094-.886 1.98-1.98 1.98-1.093 0-1.979-.886-1.979-1.98 0-1.093.886-1.98 1.979-1.98" fill="#fff" sketch:type="MSShapeGroup"/><path d="M164.451 3.535c1.094 0 1.98.887 1.98 1.98 0 1.094-.886 1.98-1.98 1.98-1.093 0-1.98-.886-1.98-1.98 0-1.093.887-1.98 1.98-1.98" fill="#fff" sketch:type="MSShapeGroup"/><path d="M158.512 3.535c1.093 0 1.98.887 1.98 1.98 0 1.094-.887 1.98-1.98 1.98-1.094 0-1.98-.886-1.98-1.98 0-1.093.886-1.98 1.98-1.98" fill="#fff" sketch:type="MSShapeGroup"/><path d="M7 17h37v53h-37v-53z" fill="#13E88C" sketch:type="MSShapeGroup"/><path d="M52 17h116v26h-116v-26z" fill="#3988A6" sketch:type="MSShapeGroup"/><path d="M52 52h116v17h-116v-17z" fill="#E6CC41" sketch:type="MSShapeGroup"/><path d="M7 77h161v19h-161v-19z" fill="#E9665E" sketch:type="MSShapeGroup"/></g></svg>