<svg width="140" height="140" viewBox="0 0 140 140" xmlns="http://www.w3.org/2000/svg" xmlns:sketch="http://www.bohemiancoding.com/sketch/ns"><title>graphic-t8market_sticker</title><g sketch:type="MSLayerGroup" fill="none"><path d="M74.659 2.888c2.915-3.692 8.739-2.814 10.436 1.573 1.416 3.662 5.881 5.039 9.114 2.811 3.873-2.669 9.18-.113 9.508 4.579.273 3.917 4.134 6.549 7.88 5.373 4.488-1.409 8.806 2.597 7.736 7.178-.893 3.823 2.021 7.477 5.947 7.457 4.704-.024 7.649 5.077 5.277 9.139-1.98 3.39-.273 7.74 3.484 8.879 4.502 1.364 5.813 7.106 2.348 10.288-2.891 2.656-2.542 7.316.713 9.511 3.9 2.631 3.46 8.505-.788 10.524-3.546 1.686-4.586 6.242-2.123 9.299 2.951 3.663.8 9.146-3.855 9.824-3.885.565-6.222 4.612-4.769 8.259 1.74 4.371-1.932 8.976-6.58 8.251-3.879-.604-7.305 2.574-6.992 6.488.375 4.689-4.491 8.007-8.719 5.944-3.529-1.721-7.739.307-8.593 4.139-1.024 4.591-6.653 6.327-10.085 3.11-2.864-2.684-7.485-1.988-9.431 1.422-2.331 4.085-8.222 4.085-10.553 0-1.946-3.41-6.567-4.106-9.431-1.422-3.433 3.217-9.061 1.481-10.085-3.11-.854-3.832-5.064-5.86-8.593-4.139-4.228 2.063-9.095-1.255-8.72-5.944.314-3.914-3.112-7.092-6.991-6.488-4.648.725-8.321-3.88-6.58-8.251 1.453-3.647-.884-7.694-4.769-8.259-4.655-.678-6.807-6.161-3.855-9.824 2.463-3.057 1.423-7.613-2.123-9.299-4.248-2.019-4.688-7.893-.788-10.524 3.255-2.195 3.604-6.855.712-9.511-3.464-3.182-2.153-8.924 2.349-10.288 3.757-1.139 5.464-5.489 3.484-8.879-2.372-4.062.573-9.163 5.277-9.139 3.926.02 6.839-3.634 5.947-7.457-1.07-4.581 3.248-8.587 7.736-7.178 3.745 1.176 7.606-1.456 7.88-5.373.328-4.692 5.635-7.248 9.508-4.579 3.233 2.228 7.698.851 9.114-2.811 1.697-4.387 7.521-5.265 10.435-1.573 2.433 3.082 7.106 3.082 9.538 0" fill="#F35456" sketch:type="MSShapeGroup"/><path d="M21.373 70.49l1.873 4.759c.705 1.793 1.253 3.279 1.746 4.828l.04.003c.108-1.396.33-2.896.623-4.56l1.365-7.252 1.457-.574 4.445 11.293-1.374.541-1.893-4.808c-.719-1.826-1.229-3.174-1.672-4.644l-.057.002c-.065 1.458-.321 3.069-.598 4.628l-1.326 7.005-1.558.613-4.444-11.293 1.373-.541" fill="#fff" sketch:type="MSShapeGroup"/><path d="M34.316 73.002l.703-.277c1.241-.489 1.854-1.388 1.557-2.142-.284-.721-1.115-.915-2.037-.553-.652.257-1.305.765-1.735 1.342l-.726-.76c.624-.826 1.47-1.43 2.408-1.8 1.241-.487 2.966-.528 3.586 1.047.395 1.005-.269 2.022-1.101 2.562l.012.034c1.246-.375 2.542-.033 3.01 1.156.692 1.76-.843 3.119-2.552 3.791-.955.376-2.009.501-2.887.382l-.004-1.14c.712.087 1.591.012 2.362-.291 1.224-.482 1.763-1.372 1.446-2.176-.428-1.089-1.686-.942-2.91-.46l-.736.29-.396-1.005" fill="#fff" sketch:type="MSShapeGroup"/><path d="M45.809 64.55l2.756 7.003.845-.313 1.359 3.702-1.156.455-1.082-2.553-5.613 2.209.949 2.606-1.156.455-1.512-3.642.681-.287c.147-.659.198-1.317.151-1.976-.077-1.13-.355-2.278-.804-3.418l-.83-2.111 5.412-2.13zm-3.135 4.078c.422 1.072.679 2.171.767 3.182.05.618.014 1.213-.06 1.764l3.736-1.47-2.307-5.865-2.664 1.049.528 1.34z" fill="#fff" sketch:type="MSShapeGroup"/><path d="M56.085 69.871l-.52-.975-.049.019c-.203.814-.85 1.728-2.006 2.183-1.642.646-2.935-.181-3.396-1.354-.771-1.96.549-3.719 3.689-4.934l-.067-.168c-.263-.67-.922-1.804-2.581-1.151-.754.296-1.449.841-1.874 1.434l-.718-.84c.499-.699 1.36-1.367 2.381-1.769 2.48-.976 3.749.479 4.388 2.104l1.194 3.032c.277.704.581 1.378.9 1.892l-1.341.527zm-1.847-4.053c-1.621.6-3.336 1.603-2.716 3.178.376.955 1.191 1.157 1.945.86 1.055-.415 1.462-1.349 1.427-2.128-.01-.17-.042-.352-.102-.502l-.554-1.408z" fill="#fff" sketch:type="MSShapeGroup"/><path d="M61.838 58.241l.462 1.173-2.531.996 2.731 6.936-1.457.574-2.731-6.937-2.53.996-.462-1.173 6.518-2.565" fill="#fff" sketch:type="MSShapeGroup"/><path d="M65.432 61.819c.817 1.981 2.414 2.301 3.887 1.72 1.056-.415 1.62-.849 2.081-1.302l.666.956c-.426.44-1.209 1.058-2.499 1.565-2.497.983-4.633-.072-5.596-2.519-.963-2.446-.281-4.939 2.082-5.869 2.647-1.042 4.267 1.01 4.854 2.501.119.302.178.549.22.707l-5.695 2.241zm3.906-2.757c-.353-.944-1.328-2.244-2.986-1.591-1.493.587-1.605 2.219-1.32 3.286l4.306-1.695z" fill="#fff" sketch:type="MSShapeGroup"/><path d="M77.465 52.091l3.191 8.109-1.457.574-2.737-6.953-2.78 1.094.83 2.111c.897 2.279 1.279 3.889.494 4.992-.277.476-.656.839-1.41 1.135l-.606-1.096c.265-.162.537-.405.672-.652.536-.85.172-2.022-.541-3.832l-1.285-3.266 5.629-2.216" fill="#fff" sketch:type="MSShapeGroup"/><path d="M89.049 56.897l-1.458.574-1.339-3.401-1.089.428c-.62.244-.973.577-1.179.987-.412.723-.234 1.815-.242 2.727-.002.291-.033.555-.072.802l-1.574.62c.078-.34.127-.708.139-1.119.042-.926-.173-2.061.311-2.948.166-.316.394-.62.736-.832l-.019-.05c-1.102.298-2.448.074-2.936-1.166-.33-.838-.101-1.585.38-2.181.52-.65 1.44-1.206 2.496-1.622.973-.382 1.943-.668 2.68-.861l3.166 8.042zm-4.268-6.564c-.387.096-.736.194-1.256.398-1.004.396-2.082 1.149-1.64 2.271.409 1.04 1.844.9 2.715.558l1.256-.495-1.075-2.732z" fill="#fff" sketch:type="MSShapeGroup"/><path d="M88.334 47.814l1.81-.713 3.083 3.508c.438.524 1.179 1.374 1.614 1.938l.034-.013c-.053-.676-.109-2.143-.141-3.157l-.084-4.05 1.827-.719 3.761 7.886-1.408.554-1.707-3.798c-.393-.852-.869-1.864-1.292-2.84l-.05.02c.072.823.112 1.562.148 2.981l.05 4.7-1.072.423-3.016-3.437c-.556-.672-1.369-1.706-1.867-2.382l-.067.027c.342.968.714 2.06 1.014 2.968l1.308 3.916-1.357.534-2.588-8.346" fill="#fff" sketch:type="MSShapeGroup"/><path d="M103.86 41.702l1.346 3.418c.508 1.29.807 2.101 1.195 3.284l.057-.003c.097-1.18.157-1.862.324-3.011l.881-5.184 1.727-.68 3.191 8.11-1.407.554-1.352-3.435c-.521-1.323-.758-2.024-1.206-3.357l-.05.019c-.11 1.244-.205 2.036-.35 3.041l-.863 5.235-1.692.666-3.191-8.109 1.39-.548" fill="#fff" sketch:type="MSShapeGroup"/><path d="M35.472 101.197l-.52-.976-.05.02c-.202.815-.848 1.727-2.005 2.182-1.642.646-2.934-.181-3.396-1.353-.772-1.961.549-3.718 3.689-4.934l-.067-.168c-.264-.67-.922-1.804-2.581-1.152-.754.297-1.448.841-1.874 1.434l-.717-.839c.498-.7 1.358-1.367 2.38-1.769 2.479-.976 3.749.479 4.388 2.104l1.194 3.033c.277.703.581 1.376.899 1.89l-1.34.528zm-1.847-4.053c-1.621.599-3.336 1.603-2.716 3.178.376.955 1.191 1.157 1.944.86 1.056-.415 1.462-1.35 1.427-2.129-.009-.17-.042-.351-.101-.502l-.554-1.407z" fill="#fff" sketch:type="MSShapeGroup"/><path d="M36.215 91.539l3.662 4.093c.395.464.848 1.021 1.172 1.453l.034-.013c-.041-.545-.117-1.23-.147-1.896l-.264-5.391 1.558-.614.063 6.651c.039 3.197-.12 4.905-.783 6.171-.469.921-1.091 1.456-1.434 1.668l-.855-1.095c.322-.262.714-.688 1.006-1.229.276-.476.554-1.243.593-2.13.008-.177.012-.314-.021-.397-.033-.084-.114-.188-.252-.346l-5.94-6.292 1.608-.633" fill="#fff" sketch:type="MSShapeGroup"/><path d="M49.415 86.344l.462 1.173-2.53.995 2.729 6.937-1.457.573-2.73-6.936-2.53.996-.462-1.173 6.518-2.565" fill="#fff" sketch:type="MSShapeGroup"/><path d="M59.338 91.455c-.306.353-1.055.957-2.144 1.386-2.446.963-4.69-.069-5.667-2.549-.982-2.497.015-4.979 2.663-6.02.87-.343 1.727-.429 2.207-.386l.115 1.271c-.432-.062-1.057-.03-1.862.287-1.859.732-2.324 2.502-1.658 4.194.738 1.876 2.4 2.557 4.009 1.924.837-.33 1.305-.765 1.651-1.114l.686 1.007" fill="#fff" sketch:type="MSShapeGroup"/><path d="M66.797 84.108c1.18 2.998-.383 5.123-2.344 5.895-2.194.864-4.519-.078-5.529-2.642-1.069-2.714.082-5.005 2.326-5.888 2.33-.917 4.57.155 5.547 2.635zm-6.402 2.616c.7 1.776 2.249 2.715 3.69 2.147 1.407-.554 1.942-2.293 1.224-4.12-.541-1.373-1.913-2.845-3.657-2.159-1.742.685-1.863 2.591-1.257 4.132z" fill="#fff" sketch:type="MSShapeGroup"/><path d="M68.126 82.037c-.408-1.039-.773-1.863-1.108-2.621l1.324-.521.613 1.364.034-.013c.214-1.227.939-2.188 2.261-2.709 1.961-.771 4.088.307 5.058 2.77 1.147 2.915-.062 5.055-1.972 5.806-1.072.423-2.195.323-2.998-.291l-.033.014 1.734 4.406-1.457.573-3.456-8.778zm2.309 1.587c.084.218.198.405.304.577.67.917 1.835 1.271 2.891.855 1.557-.613 1.962-2.243 1.229-4.102-.639-1.625-2.041-2.68-3.599-2.066-1.005.395-1.66 1.485-1.51 2.703.023.204.059.442.137.642l.548 1.391z" fill="#fff" sketch:type="MSShapeGroup"/><path d="M85.468 81.171c-.306.353-1.056.957-2.145 1.386-2.446.963-4.69-.07-5.666-2.549-.983-2.497.014-4.979 2.661-6.021.872-.342 1.729-.428 2.209-.385l.114 1.271c-.431-.062-1.057-.029-1.861.287-1.86.732-2.324 2.502-1.658 4.193.738 1.878 2.4 2.558 4.008 1.925.838-.33 1.305-.764 1.651-1.113l.687 1.006" fill="#fff" sketch:type="MSShapeGroup"/><path d="M86.54 76.725c.817 1.98 2.414 2.3 3.889 1.719 1.055-.415 1.62-.849 2.08-1.302l.667.958c-.428.438-1.209 1.055-2.5 1.563-2.496.983-4.634-.072-5.596-2.519-.963-2.446-.281-4.939 2.082-5.869 2.647-1.042 4.268 1.01 4.854 2.501.119.301.177.549.22.706l-5.696 2.243zm3.907-2.757c-.353-.946-1.328-2.244-2.987-1.592-1.491.587-1.604 2.218-1.319 3.286l4.306-1.694z" fill="#fff" sketch:type="MSShapeGroup"/><path d="M93.451 72.07c-.409-1.039-.772-1.863-1.109-2.621l1.324-.521.614 1.364.033-.013c.214-1.226.939-2.188 2.262-2.709 1.96-.772 4.088.306 5.058 2.769 1.146 2.916-.063 5.056-1.973 5.808-1.072.421-2.194.322-2.997-.292l-.034.014 1.734 4.406-1.457.574-3.455-8.779zm2.308 1.587c.086.218.198.405.304.577.67.917 1.835 1.27 2.891.855 1.559-.613 1.962-2.242 1.231-4.102-.64-1.625-2.042-2.68-3.6-2.067-1.006.396-1.661 1.486-1.51 2.703.023.205.058.443.137.644l.547 1.39z" fill="#fff" sketch:type="MSShapeGroup"/><path d="M109.621 72.014l-.519-.976-.05.02c-.202.815-.85 1.727-2.006 2.182-1.642.646-2.935-.18-3.396-1.353-.771-1.96.549-3.719 3.689-4.934l-.067-.168c-.263-.67-.922-1.805-2.581-1.152-.754.297-1.449.842-1.874 1.434l-.717-.839c.499-.7 1.359-1.367 2.38-1.769 2.48-.976 3.748.479 4.389 2.103l1.193 3.034c.277.703.582 1.377.899 1.89l-1.34.528zm-1.847-4.053c-1.622.599-3.334 1.603-2.715 3.178.376.955 1.191 1.157 1.944.86 1.056-.415 1.462-1.35 1.427-2.129-.01-.17-.042-.351-.102-.502l-.554-1.407z" fill="#fff" sketch:type="MSShapeGroup"/><path d="M110.096 62.461l1.81-.712 3.083 3.508c.439.524 1.179 1.374 1.614 1.938l.034-.013c-.053-.676-.109-2.144-.14-3.158l-.085-4.048 1.827-.72 3.761 7.886-1.407.553-1.708-3.797c-.393-.852-.869-1.865-1.291-2.839l-.051.02c.072.822.111 1.562.147 2.979l.051 4.701-1.072.422-3.017-3.437c-.554-.672-1.368-1.705-1.866-2.381l-.067.027c.342.968.715 2.06 1.013 2.968l1.31 3.916-1.357.534-2.589-8.347" fill="#fff" sketch:type="MSShapeGroup"/><path d="M122.762 63.088l-3.4-7.95 1.609-.633 2.929 8.135-1.138.448zm.523 2.56c-.236-.603.011-1.203.58-1.427.604-.238 1.16.047 1.398.649.231.587.023 1.191-.579 1.428-.587.231-1.167-.063-1.399-.65z" fill="#fff" sketch:type="MSShapeGroup"/></g></svg>