<svg xmlns="http://www.w3.org/2000/svg" viewBox="0 0 250 250" enable-background="new 0 0 250 250"><g fill="#fff"><path d="M149 142v-15h-9.2c-4.4 0-8.1-2.2-9.8-6.3h-.1c-1.6-4-.9-8.4 2.1-11.5l6.5-6.4-9.5-9.5-6.4 6.4c-3.1 3.1-7.7 3.8-11.7 2.1-.1 0-.7-.1-.7-.1-4-1.6-7.2-5.4-7.2-9.7v-9h-11v8.9c0 4.4-3.5 8.1-7.5 9.8l-.6.1c-4 1.6-8.7.9-11.8-2.1l-6.6-6.5-9.6 9.5 6.4 6.4c3.1 3.1 3.8 7.7 2.1 11.7l-.1-.1c-1.6 4-5.4 6.3-9.7 6.3h-8.6v14h8.4c4.4 0 8.1 2.9 9.8 6.9l.1.3c1.6 4 .9 8.6-2.1 11.6l-6.5 6.5 9.5 9.5 6.4-6.4c3.1-3.1 7.7-3.8 11.7-2.1l.6.1c4 1.6 7.1 5.4 7.1 9.7v8.8h12v-8.7c0-4.4 3.1-8.1 7.2-9.8l.4-.1c4-1.6 8.7-.9 11.7 2.1l6.5 6.5 9.6-9.5-6.4-6.4c-3.1-3.1-3.8-7.7-2.1-11.7h.1c1.6-4 5.4-6.4 9.7-6.4h9.3zm-48.3 10.3c-12.7 2.4-23.6-8.5-21.2-21.2 1.3-7.1 7.1-12.8 14.2-14.2 12.7-2.4 23.6 8.5 21.2 21.2-1.4 7.1-7.1 12.9-14.2 14.2zM204 95v-9h-5.4c-2.7 0-5-1.4-6-3.8 0 0 0 .1-.1 0-1-2.4-.6-5.2 1.3-7l4-3.9-5.8-5.8-3.9 3.9c-1.9 1.9-4.7 2.3-7.2 1.3 0 0 .1 0 0-.1-2.4-1-3.9-3.3-3.9-5.9v-4.7h-9v4.5c0 2.7-1.5 5-3.9 6v.1c-2.4 1-5.2.6-7-1.3l-3.9-4-5.8 5.8 3.9 3.9c1.9 1.9 2.3 4.7 1.3 7.2 0 0 0-.1-.1-.1-1 2.4-3.3 3.9-5.9 3.9h-4.6v8h4.4c2.7 0 5 2 6 4.5 0 0 0 .3.1.3 1 2.4.6 5.3-1.3 7.2l-4 4 5.8 5.8 3.9-3.9c1.9-1.9 4.7-2.3 7.2-1.3 0 0-.5 0-.5.1 2.4 1 3.5 3.3 3.5 5.9v5.3h10v-5.2c0-2.7 1.4-5 3.9-6v-.1c2.4-1 5.2-.6 7 1.3l3.9 4 5.8-5.8-3.9-3.9c-1.9-1.9-2.3-4.7-1.3-7.2l.1-.1c1-2.4 3.3-4 5.9-4h5.5zm-29.4 6.5c-7.8 1.5-14.5-5.2-13-13 .8-4.3 4.3-7.8 8.7-8.7 7.8-1.5 14.5 5.2 13 13-.8 4.4-4.3 7.9-8.7 8.7z"/></g></svg>