<svg xmlns="http://www.w3.org/2000/svg" viewBox="0 0 250 250" enable-background="new 0 0 250 250"><path fill="#fff" d="M186.7 92.3c-.9-1.8-.7-2.8-.5-3.1 0-.1.1-.1.3-.1.5.1 1.4.8 2 3 .2.9.4 1.8.3 2.7-.9-.7-1.6-1.5-2.1-2.5zm14.6.8c-1.1-.8-2.6-.6-3.4.4-1.4 1.7-2.9 2.4-4.2 2.6.2-1.7 0-3.5-.4-5.2-.9-3.6-3.1-6-5.8-6.5-2-.4-4 .4-5.2 2-1.6 2.1-1.6 5.1.1 8.3 1.1 2.1 2.8 3.8 4.9 5-1.4 1.7-4.2 2.6-6.8 2.1-17.8-34.5-63.6-35.3-89.8-25.1-7.2-1.1-21.7-1.8-34.1 3.8-1.9.9-1.4 2.5-.5 4.3 2.9 5.4 5.9 8.7 12.1 12.2-3.7 4.9-5.8 7.7-7.3 14.6-.8 3.3-2.1 5.5-3.9 7.2-2 1.8-3.2 2.2-5.9 2.9-3.8.9-4.4 2.5-4.2 5.3.2 4.1 1.4 8.7 3.3 12.6 1 2.1 2.3 4 3.7 5.5 1.4 1.4 2.9 2.5 4.7 3.1 3.2 1.1 6.6 1.3 8.7 1.5 4.4 6.5 8.2 10.4 15.6 14.8.4 5.1-.3 12.6-.6 14.6h17c2 0 3-.5 4.2-2.1 1.3-1.6 2.8-5.4 3.7-7.4 7.8 1.1 19.8.8 27.1-.4 0 3.1-.7 7.9-1 9.9h17c2.7 0 4-1.2 5.3-2.8 14.4-17.5 34.5-38 27.2-69.5 4.1-.1 7.5-2.3 9.4-5.8 3.7.2 7.2-1.4 9.6-4.5.7-1 .5-2.6-.5-3.4zm-131.5 27.3c-2.1.1-3.9-1.5-4-3.6-.1-2.1 1.5-3.9 3.6-4 2.1-.1 3.9 1.5 4 3.6.1 2.1-1.5 3.9-3.6 4zm76.6-32.6c-15.6-6.9-34.7-6.7-50.5.6l-2.3-5c17.2-8 38-8.2 55-.7l-2.2 5.1z"/></svg>