<svg width="175" height="105" viewBox="0 0 175 105" xmlns="http://www.w3.org/2000/svg" xmlns:sketch="http://www.bohemiancoding.com/sketch/ns"><title>graphic-t8-control</title><g sketch:type="MSLayerGroup" fill="none"><path d="M172.42 0h-169.798c-1.262 0-2.622 1.233-2.622 2.495v102.505h175v-102.505c0-1.262-1.318-2.495-2.58-2.495" fill="#E6E7E8" sketch:type="MSShapeGroup"/><path d="M1 11h173v93h-173v-93z" fill="#fff" sketch:type="MSShapeGroup"/><path d="M170.038 3.745c1.093 0 1.98.887 1.98 1.98 0 1.094-.887 1.98-1.98 1.98s-1.98-.886-1.98-1.98c0-1.093.887-1.98 1.98-1.98" fill="#fff" sketch:type="MSShapeGroup"/><path d="M164.523 3.745c1.093 0 1.98.887 1.98 1.98 0 1.094-.887 1.98-1.98 1.98-1.094 0-1.98-.886-1.98-1.98 0-1.093.886-1.98 1.98-1.98" fill="#fff" sketch:type="MSShapeGroup"/><path d="M158.583 3.745c1.094 0 1.98.887 1.98 1.98 0 1.094-.886 1.98-1.98 1.98-1.093 0-1.98-.886-1.98-1.98 0-1.093.887-1.98 1.98-1.98" fill="#fff" sketch:type="MSShapeGroup"/><path d="M28.151 37.772h-10.932c-.813 0-1.472-.66-1.472-1.473v-10.453c0-.813.659-1.472 1.472-1.472h10.932c.813 0 1.472.659 1.472 1.472v10.453c0 .813-.659 1.473-1.472 1.473zm0 25.121h-10.932c-.813 0-1.472-.66-1.472-1.473v-10.453c0-.813.659-1.472 1.472-1.472h10.932c.813 0 1.472.659 1.472 1.472v10.453c0 .813-.659 1.473-1.472 1.473zm0 25.36h-10.932c-.813 0-1.472-.66-1.472-1.473v-10.453c0-.813.659-1.472 1.472-1.472h10.932c.813 0 1.472.659 1.472 1.472v10.453c0 .813-.659 1.473-1.472 1.473z" stroke="#E6E7E8" sketch:type="MSShapeGroup"/><path d="M44.696 27.006h115.239v6.22h-115.239v-6.22z" fill="#E6E7E8" sketch:type="MSShapeGroup"/><path d="M44.696 51.887h115.239v6.22h-115.239v-6.22z" fill="#E6E7E8" sketch:type="MSShapeGroup"/><path d="M44.696 77.726h115.239v6.22h-115.239v-6.22z" fill="#E6E7E8" sketch:type="MSShapeGroup"/><path d="M17.509 23.691l-4.465 4.467 8.416 8.417 14.225-14.222-3.251-3.305-10.883 9.034-4.042-4.391z" fill="#39B54A" sketch:type="MSShapeGroup"/><path d="M21.551 78.626l-4.042-4.392-4.465 4.467-.001-.001 8.417 8.419 14.225-14.223-3.251-3.304-10.883 9.034" fill="#39B54A" sketch:type="MSShapeGroup"/><path d="M26.622 47.581l-4.56 4.56-4.56-4.559-3.908 3.908 4.56 4.56-4.56 4.56 3.908 3.908 4.56-4.56 4.56 4.56 3.908-3.908-4.56-4.56 4.56-4.56-3.908-3.909" fill="#E9665E" sketch:type="MSShapeGroup"/></g></svg>