<svg xmlns="http://www.w3.org/2000/svg" viewBox="0 0 250 250" enable-background="new 0 0 250 250"><g><path fill="#fff" d="M38 147v-15.7c34-23.1 38.7-28.2 38.7-35.5 0-5.1-4.4-7.7-9.8-7.7-8.2 0-14.2 3.1-19.5 8.1l-10.4-12.7c7.9-8.6 19.6-12.3 29.9-12.3 17.4 0 29.9 9.5 29.9 24.3 0 11.3-8.1 20.5-26.4 33.5h26.6v18h-59zM178.5 170l10-22h-14.5v-8h23v6.1l-10.2 23.9h-8.3zM185.8 128.8c13.6 0 24.6 11 24.6 24.6 0 13.6-11 24.6-24.6 24.6s-24.6-11-24.6-24.6c0-13.5 11-24.6 24.6-24.6m0-4.8c-16.2 0-29.4 13.2-29.4 29.4s13.2 29.4 29.4 29.4 29.4-13.2 29.4-29.4-13.2-29.4-29.4-29.4zM153 147c2.2-11 8-19 18-23.4v-8.6h-10v-43h-25.9l-29.1 45.8v14.2h36v15h11zm-27.5-32l16.5-26.1v26.1h-16.5z"/></g></svg>