<svg xmlns="http://www.w3.org/2000/svg" viewBox="0 0 250 250" enable-background="new 0 0 250 250"><g fill="#A6A8AB"><path d="M194.9 84c1.1 0 2.1.8 2.1 1.9v109c0 1.1-1 2.1-2.1 2.1h-109c-1.1 0-1.9-1-1.9-2.1v-109c0-1.1.8-1.9 1.9-1.9h109.1m-.1-6h-109c-4.4 0-7.9 3.5-7.9 7.9v109c0 4.4 3.5 8.1 7.9 8.1h109c4.4 0 8.1-3.7 8.1-8.1v-109c0-4.4-3.7-7.9-8.1-7.9zM70 166h-15.1c-1.1 0-1.9-1-1.9-2.1v-109c0-1.1.8-1.9 1.9-1.9h109c1.1 0 2.1.8 2.1 1.9v15.1h6v-15.1c0-4.4-3.7-7.9-8.1-7.9h-109c-4.4 0-7.9 3.5-7.9 7.9v109c0 4.4 3.5 8.1 7.9 8.1h15.1v-6zM101 100h79v6h-79zM101 115h79v6h-79zM101 131h79v6h-79zM101 147h63v6h-63zM101 162h63v6h-63zM101 178h47v6h-47z"/></g></svg>