<svg xmlns="http://www.w3.org/2000/svg" viewBox="0 0 250 250" enable-background="new 0 0 250 250"><g><path fill="#A6A8AB" d="M195 53c1.1 0 2 .9 2 2v140c0 1.1-.9 2-2 2h-140c-1.1 0-2-.9-2-2v-140c0-1.1.9-2 2-2h140m0-6h-140c-4.4 0-8 3.6-8 8v140c0 4.4 3.6 8 8 8h140c4.4 0 8-3.6 8-8v-140c0-4.4-3.6-8-8-8zM72 174.1c-.5 0-.9-.1-1.4-.3-1.5-.7-2.1-2.6-1.3-4l18.2-35.9 22.9 12.6 17.3-34.2 23.5 13.7 22.2-43.9c.7-1.5 2.6-2.1 4-1.3 1.5.7 2.1 2.6 1.3 4l-25.1 49.5-23.5-13.7-17.2 34-22.9-12.6-15.4 30.3c-.4 1.2-1.5 1.8-2.6 1.8zM182 89.1l-.9-15.6-13 8.5z"/></g></svg>