<svg xmlns="http://www.w3.org/2000/svg" viewBox="0 0 249.5 249" enable-background="new 0 0 249.5 249"><g fill="#A6A8AB"><path d="M187.9 45.2c1.1 0 1.6.7 1.6 1.8v156c0 1.1-.5 2-1.6 2h-126.8c-1.1 0-1.6-.9-1.6-2v-62h-6v62c0 4.4 3.2 8 7.6 8h126.7c4.4 0 7.6-3.6 7.6-8v-156c0-4.4-3.4-8-7.8-8h.2-79.4v6h79"/><path d="M123.5 85h52v61h-52zM93.5 182h63v6h-63zM74.5 159h101v6h-101zM123.5 63h33v6h-33zM77.6 45.8c3.2 6 7 11.8 10.6 17.6 7.4 11.5 14.3 22.3 14.3 30.3 0 14-11.2 25.3-25 25.3s-25-11.4-25-25.3c0-7.9 6.9-18.6 14.2-29.9 3.8-5.9 7.6-11.9 10.9-18m-.1-14.8c-7.3 22.3-31 45.4-31 62.7 0 17.3 13.9 31.3 31 31.3s31-14 31-31.3-23.3-40.4-31-62.7zM93.6 102.3c-3.3 6.6-11.2 9.3-17.8 6 6.1-.9 13.5-14.9 11.8-23.8 6.6 3.3 9.3 11.2 6 17.8z"/></g></svg>