<svg xmlns="http://www.w3.org/2000/svg" viewBox="0 0 250 250" enable-background="new 0 0 250 250"><g fill="#A6A8AB"><path d="M195 54.5c1.1 0 2 .9 2 2v140c0 1.1-.9 2-2 2h-140c-1.1 0-2-.9-2-2v-140c0-1.1.9-2 2-2h140m0-6h-140c-4.4 0-8 3.6-8 8v140c0 4.4 3.6 8 8 8h140c4.4 0 8-3.6 8-8v-140c0-4.4-3.6-8-8-8zM109 78.5h-6M102.9 84.5"/><path d="M156.1 101.1c-.9-12.5-12.4-22.6-24.9-22.6h-37.2v2s9-.4 9 4v37c0 4-9 4-9 4v2h9v36.5c0 2.3-.2 4-.6 4.6-.7 1-1.9 1.8-3.6 1.8h-1.8v2h18v-2h-1.9c-1.6 0-2.6-.7-3.4-1.5-.5-.6-.7-2.4-.7-4.9v-36.5h22.7c14.1 0 25.5-12 24.4-26.4zm-24.9 20.4h-22.2v-37h22.7c10.4 0 18.9 8.7 18.5 19.2-.4 10-9 17.8-19 17.8zM141 138.5h-47v-5h47z"/></g></svg>