<svg xmlns="http://www.w3.org/2000/svg" viewBox="0 0 250 250" enable-background="new 0 0 250 250"><g><path fill="#A7A9AC" d="M154 206h-92.4c-1.1 0-1.6-.9-1.6-2v-156c0-1.1.5-2 1.6-2h126.80000000000001c1.1 0 1.6.9 1.6 2v69h6v-69c0-4.4-3.2-8-7.6-8h-126.8c-4.4 0-7.6 3.6-7.6 8v156c0 4.4 3.2 8 7.6 8h92.4v-6z"/><path fill="#A6A8AB" d="M184.7 139.2l9.8-4.4 5.8 9 10.6 1.6.1 10.7 8.1 7.1-5.8 9 3 10.3-9.8 4.6-3.1 10.2-10.6-1.4-8.1 7-8.2-7-10.6 1.4-3.1-10.2-9.7-4.6 2.9-10.3-5.7-9 8-7.1.1-10.7 10.6-1.6 5.9-9zM74 100h101v6h-101zM74 123h51v6h-51zM93 76h63v6h-63z"/></g></svg>